<mxfile host="65bd71144e">
    <diagram id="oH2dMvBXxlpAksXgeC_A" name="Page-1">
        <mxGraphModel dx="579" dy="233" grid="1" gridSize="10" guides="1" tooltips="1" connect="1" arrows="1" fold="1" page="1" pageScale="1" pageWidth="850" pageHeight="1100" math="0" shadow="0">
            <root>
                <mxCell id="0"/>
                <mxCell id="1" parent="0"/>
                <object label="" id="2">
                    <mxCell style="rounded=1;whiteSpace=wrap;html=1;" parent="1" vertex="1">
                        <mxGeometry x="80" y="40" width="200" height="60" as="geometry"/>
                    </mxCell>
                </object>
                <mxCell id="3" value="L'utilisateur saisie une recherche dans la barre principale" style="text;html=1;strokeColor=none;fillColor=none;align=center;verticalAlign=middle;whiteSpace=wrap;rounded=0;" parent="1" vertex="1">
                    <mxGeometry x="95" y="50" width="170" height="40" as="geometry"/>
                </mxCell>
                <mxCell id="99" style="edgeStyle=none;html=1;exitX=1;exitY=0.5;exitDx=0;exitDy=0;" edge="1" parent="1" source="6">
                    <mxGeometry relative="1" as="geometry">
                        <mxPoint x="320" y="200" as="targetPoint"/>
                    </mxGeometry>
                </mxCell>
                <mxCell id="6" value="" style="rhombus;whiteSpace=wrap;html=1;" parent="1" vertex="1">
                    <mxGeometry x="120" y="155" width="120" height="90" as="geometry"/>
                </mxCell>
                <mxCell id="7" value="&lt;font style=&quot;font-size: 12px;&quot;&gt;saisie &amp;gt;=3&lt;br&gt;caractères&lt;br&gt;&lt;/font&gt;" style="text;html=1;strokeColor=none;fillColor=none;align=center;verticalAlign=middle;whiteSpace=wrap;rounded=0;strokeWidth=1;" parent="1" vertex="1">
                    <mxGeometry x="150" y="180" width="60" height="40" as="geometry"/>
                </mxCell>
                <mxCell id="14" value="" style="endArrow=classic;html=1;exitX=0.5;exitY=1;exitDx=0;exitDy=0;entryX=0.5;entryY=0;entryDx=0;entryDy=0;" parent="1" source="2" target="6" edge="1">
                    <mxGeometry width="50" height="50" relative="1" as="geometry">
                        <mxPoint x="80" y="150" as="sourcePoint"/>
                        <mxPoint x="180" y="160" as="targetPoint"/>
                    </mxGeometry>
                </mxCell>
                <mxCell id="21" value="" style="endArrow=classic;html=1;fontSize=10;exitX=0.5;exitY=1;exitDx=0;exitDy=0;" parent="1" source="6" edge="1">
                    <mxGeometry relative="1" as="geometry">
                        <mxPoint x="180" y="270" as="sourcePoint"/>
                        <mxPoint x="180" y="320" as="targetPoint"/>
                    </mxGeometry>
                </mxCell>
                <mxCell id="22" value="Oui" style="edgeLabel;resizable=0;html=1;align=center;verticalAlign=middle;strokeWidth=1;fontSize=10;" parent="21" connectable="0" vertex="1">
                    <mxGeometry relative="1" as="geometry"/>
                </mxCell>
                <mxCell id="42" value="" style="rounded=1;whiteSpace=wrap;html=1;strokeWidth=1;fontSize=9;" parent="1" vertex="1">
                    <mxGeometry x="120" y="320" width="120" height="60" as="geometry"/>
                </mxCell>
                <mxCell id="45" style="edgeStyle=none;html=1;fontSize=12;entryX=0.5;entryY=0;entryDx=0;entryDy=0;" parent="1" target="46" edge="1">
                    <mxGeometry relative="1" as="geometry">
                        <mxPoint x="180" y="420" as="targetPoint"/>
                        <mxPoint x="180" y="380" as="sourcePoint"/>
                    </mxGeometry>
                </mxCell>
                <mxCell id="44" value="&lt;font style=&quot;font-size: 12px;&quot;&gt;Itération sur le tableau des recettes&lt;br&gt;&lt;/font&gt;" style="text;html=1;strokeColor=none;fillColor=none;align=center;verticalAlign=middle;whiteSpace=wrap;rounded=0;strokeWidth=1;" parent="1" vertex="1">
                    <mxGeometry x="130" y="330" width="100" height="40" as="geometry"/>
                </mxCell>
                <mxCell id="46" value="" style="rhombus;whiteSpace=wrap;html=1;" parent="1" vertex="1">
                    <mxGeometry x="120" y="425" width="120" height="90" as="geometry"/>
                </mxCell>
                <mxCell id="47" value="&lt;font style=&quot;font-size: 12px;&quot;&gt;Correspondance titre?&lt;br&gt;&lt;/font&gt;" style="text;html=1;strokeColor=none;fillColor=none;align=center;verticalAlign=middle;whiteSpace=wrap;rounded=0;strokeWidth=1;" parent="1" vertex="1">
                    <mxGeometry x="135" y="449" width="90" height="45" as="geometry"/>
                </mxCell>
                <mxCell id="48" value="" style="endArrow=classic;html=1;fontSize=10;exitX=0.5;exitY=1;exitDx=0;exitDy=0;" parent="1" source="46" edge="1">
                    <mxGeometry relative="1" as="geometry">
                        <mxPoint x="179.41" y="511.9999999999999" as="sourcePoint"/>
                        <mxPoint x="179" y="590" as="targetPoint"/>
                    </mxGeometry>
                </mxCell>
                <mxCell id="49" value="Oui" style="edgeLabel;resizable=0;html=1;align=center;verticalAlign=middle;strokeWidth=1;fontSize=10;" parent="48" connectable="0" vertex="1">
                    <mxGeometry relative="1" as="geometry"/>
                </mxCell>
                <mxCell id="51" value="" style="rounded=1;whiteSpace=wrap;html=1;strokeWidth=1;fontSize=9;" parent="1" vertex="1">
                    <mxGeometry x="120" y="590" width="120" height="60" as="geometry"/>
                </mxCell>
                <mxCell id="50" value="&lt;font style=&quot;font-size: 12px;&quot;&gt;Ajouter la recette au tableau des recettes filtrées&lt;br&gt;&lt;/font&gt;" style="text;html=1;strokeColor=none;fillColor=none;align=center;verticalAlign=middle;whiteSpace=wrap;rounded=0;strokeWidth=1;" parent="1" vertex="1">
                    <mxGeometry x="130" y="600" width="100" height="40" as="geometry"/>
                </mxCell>
                <mxCell id="52" style="edgeStyle=none;html=1;fontSize=12;" parent="1" edge="1">
                    <mxGeometry relative="1" as="geometry">
                        <mxPoint x="179.5" y="690" as="targetPoint"/>
                        <mxPoint x="179.5" y="650" as="sourcePoint"/>
                    </mxGeometry>
                </mxCell>
                <mxCell id="57" value="" style="endArrow=classic;html=1;fontSize=12;exitX=1;exitY=0.5;exitDx=0;exitDy=0;" parent="1" edge="1">
                    <mxGeometry width="50" height="50" relative="1" as="geometry">
                        <mxPoint x="240.00000000000006" y="470" as="sourcePoint"/>
                        <mxPoint x="280" y="470" as="targetPoint"/>
                    </mxGeometry>
                </mxCell>
                <mxCell id="58" value="" style="rhombus;whiteSpace=wrap;html=1;" parent="1" vertex="1">
                    <mxGeometry x="280" y="425" width="120" height="90" as="geometry"/>
                </mxCell>
                <mxCell id="59" value="&lt;font style=&quot;font-size: 12px;&quot;&gt;Correspondance ingrédient?&lt;br&gt;&lt;/font&gt;" style="text;html=1;strokeColor=none;fillColor=none;align=center;verticalAlign=middle;whiteSpace=wrap;rounded=0;strokeWidth=1;" parent="1" vertex="1">
                    <mxGeometry x="295" y="448" width="90" height="45" as="geometry"/>
                </mxCell>
                <mxCell id="60" value="" style="endArrow=classic;html=1;fontSize=12;exitX=1;exitY=0.5;exitDx=0;exitDy=0;" parent="1" edge="1">
                    <mxGeometry width="50" height="50" relative="1" as="geometry">
                        <mxPoint x="400" y="470" as="sourcePoint"/>
                        <mxPoint x="440" y="470" as="targetPoint"/>
                    </mxGeometry>
                </mxCell>
                <mxCell id="61" value="" style="rhombus;whiteSpace=wrap;html=1;" parent="1" vertex="1">
                    <mxGeometry x="440" y="425" width="120" height="90" as="geometry"/>
                </mxCell>
                <mxCell id="62" value="&lt;font style=&quot;font-size: 12px;&quot;&gt;Correspondance description?&lt;br&gt;&lt;/font&gt;" style="text;html=1;strokeColor=none;fillColor=none;align=center;verticalAlign=middle;whiteSpace=wrap;rounded=0;strokeWidth=1;" parent="1" vertex="1">
                    <mxGeometry x="455" y="446" width="90" height="45" as="geometry"/>
                </mxCell>
                <mxCell id="63" value="" style="endArrow=classic;html=1;fontSize=12;exitX=1;exitY=0.5;exitDx=0;exitDy=0;" parent="1" edge="1">
                    <mxGeometry width="50" height="50" relative="1" as="geometry">
                        <mxPoint x="560" y="470" as="sourcePoint"/>
                        <mxPoint x="180" y="670" as="targetPoint"/>
                    </mxGeometry>
                </mxCell>
                <mxCell id="116" style="edgeStyle=none;html=1;exitX=0;exitY=0.5;exitDx=0;exitDy=0;entryX=0;entryY=1;entryDx=0;entryDy=0;" edge="1" parent="1" source="68" target="42">
                    <mxGeometry relative="1" as="geometry"/>
                </mxCell>
                <mxCell id="68" value="" style="rhombus;whiteSpace=wrap;html=1;" parent="1" vertex="1">
                    <mxGeometry x="120" y="680" width="120" height="90" as="geometry"/>
                </mxCell>
                <mxCell id="69" value="&lt;font style=&quot;font-size: 12px;&quot;&gt;Itération terminée?&lt;br&gt;&lt;/font&gt;" style="text;html=1;strokeColor=none;fillColor=none;align=center;verticalAlign=middle;whiteSpace=wrap;rounded=0;strokeWidth=1;" parent="1" vertex="1">
                    <mxGeometry x="140" y="700" width="90" height="45" as="geometry"/>
                </mxCell>
                <mxCell id="72" value="" style="endArrow=classic;html=1;fontSize=12;entryX=1;entryY=0.5;entryDx=0;entryDy=0;" parent="1" target="51" edge="1">
                    <mxGeometry width="50" height="50" relative="1" as="geometry">
                        <mxPoint x="500" y="620" as="sourcePoint"/>
                        <mxPoint x="350" y="510" as="targetPoint"/>
                    </mxGeometry>
                </mxCell>
                <mxCell id="73" value="" style="endArrow=none;html=1;fontSize=12;entryX=0.5;entryY=1;entryDx=0;entryDy=0;" parent="1" target="58" edge="1">
                    <mxGeometry width="50" height="50" relative="1" as="geometry">
                        <mxPoint x="340" y="620" as="sourcePoint"/>
                        <mxPoint x="360" y="510" as="targetPoint"/>
                    </mxGeometry>
                </mxCell>
                <mxCell id="74" value="" style="endArrow=none;html=1;fontSize=12;entryX=0.5;entryY=1;entryDx=0;entryDy=0;" parent="1" target="61" edge="1">
                    <mxGeometry width="50" height="50" relative="1" as="geometry">
                        <mxPoint x="499.58000000000004" y="620.0000000000001" as="sourcePoint"/>
                        <mxPoint x="500" y="520" as="targetPoint"/>
                    </mxGeometry>
                </mxCell>
                <mxCell id="77" value="" style="rhombus;whiteSpace=wrap;html=1;" parent="1" vertex="1">
                    <mxGeometry x="700" y="750" width="120" height="90" as="geometry"/>
                </mxCell>
                <mxCell id="78" value="&lt;font style=&quot;font-size: 12px;&quot;&gt;Nombre de recettes filtrées &amp;gt; 0 ?&lt;br&gt;&lt;/font&gt;" style="text;html=1;strokeColor=none;fillColor=none;align=center;verticalAlign=middle;whiteSpace=wrap;rounded=0;strokeWidth=1;" parent="1" vertex="1">
                    <mxGeometry x="715" y="775" width="90" height="45" as="geometry"/>
                </mxCell>
                <mxCell id="81" value="" style="endArrow=none;html=1;fontSize=12;exitX=0.5;exitY=0;exitDx=0;exitDy=0;entryX=1;entryY=0.5;entryDx=0;entryDy=0;" parent="1" source="77" edge="1" target="68">
                    <mxGeometry width="50" height="50" relative="1" as="geometry">
                        <mxPoint x="760" y="740" as="sourcePoint"/>
                        <mxPoint x="760" y="470" as="targetPoint"/>
                        <Array as="points"/>
                    </mxGeometry>
                </mxCell>
                <mxCell id="83" value="" style="endArrow=none;html=1;fontSize=12;entryX=0.5;entryY=1;entryDx=0;entryDy=0;" parent="1" target="77" edge="1">
                    <mxGeometry width="50" height="50" relative="1" as="geometry">
                        <mxPoint x="760" y="880" as="sourcePoint"/>
                        <mxPoint x="800" y="820" as="targetPoint"/>
                    </mxGeometry>
                </mxCell>
                <mxCell id="84" value="" style="rounded=1;whiteSpace=wrap;html=1;strokeWidth=1;fontSize=9;" parent="1" vertex="1">
                    <mxGeometry x="700" y="880" width="120" height="60" as="geometry"/>
                </mxCell>
                <mxCell id="85" value="&lt;font style=&quot;font-size: 12px;&quot;&gt;Afficher &quot;Aucune recette corresond à cette recherche&quot;&lt;br&gt;&lt;/font&gt;" style="text;html=1;strokeColor=none;fillColor=none;align=center;verticalAlign=middle;whiteSpace=wrap;rounded=0;strokeWidth=1;" parent="1" vertex="1">
                    <mxGeometry x="710" y="890" width="100" height="40" as="geometry"/>
                </mxCell>
                <mxCell id="86" value="" style="rounded=1;whiteSpace=wrap;html=1;strokeWidth=1;fontSize=9;" parent="1" vertex="1">
                    <mxGeometry x="135" y="880" width="160" height="60" as="geometry"/>
                </mxCell>
                <mxCell id="87" value="&lt;font style=&quot;font-size: 12px;&quot;&gt;Afficher les recettes et les éléments de recherche secondaire filtrés&lt;br&gt;&lt;/font&gt;" style="text;html=1;strokeColor=none;fillColor=none;align=center;verticalAlign=middle;whiteSpace=wrap;rounded=0;strokeWidth=1;" parent="1" vertex="1">
                    <mxGeometry x="150" y="890" width="150" height="40" as="geometry"/>
                </mxCell>
                <mxCell id="92" value="Oui" style="edgeLabel;resizable=0;html=1;align=center;verticalAlign=middle;strokeWidth=1;fontSize=10;" parent="1" connectable="0" vertex="1">
                    <mxGeometry x="310.00003905792295" y="549.9968753661633" as="geometry">
                        <mxPoint x="30" y="-4" as="offset"/>
                    </mxGeometry>
                </mxCell>
                <mxCell id="93" value="Oui" style="edgeLabel;resizable=0;html=1;align=center;verticalAlign=middle;strokeWidth=1;fontSize=10;" parent="1" connectable="0" vertex="1">
                    <mxGeometry x="310.00003905792295" y="569.9968753661633" as="geometry">
                        <mxPoint x="187" y="-22" as="offset"/>
                    </mxGeometry>
                </mxCell>
                <object label="" id="100">
                    <mxCell style="rounded=1;whiteSpace=wrap;html=1;" vertex="1" parent="1">
                        <mxGeometry x="320" y="170" width="150" height="60" as="geometry"/>
                    </mxCell>
                </object>
                <mxCell id="101" value="&lt;font style=&quot;font-size: 12px;&quot;&gt;Pas de recherche lancé&lt;br&gt;&lt;/font&gt;" style="text;html=1;strokeColor=none;fillColor=none;align=center;verticalAlign=middle;whiteSpace=wrap;rounded=0;strokeWidth=1;" vertex="1" parent="1">
                    <mxGeometry x="365" y="180" width="60" height="40" as="geometry"/>
                </mxCell>
                <mxCell id="102" value="Non" style="edgeLabel;resizable=0;html=1;align=center;verticalAlign=middle;strokeWidth=1;fontSize=10;" connectable="0" vertex="1" parent="1">
                    <mxGeometry x="190" y="293" as="geometry">
                        <mxPoint x="76" y="-104" as="offset"/>
                    </mxGeometry>
                </mxCell>
                <mxCell id="104" value="Non" style="edgeLabel;resizable=0;html=1;align=center;verticalAlign=middle;strokeWidth=1;fontSize=10;" connectable="0" vertex="1" parent="1">
                    <mxGeometry x="225.00003905792295" y="459.9968753661633" as="geometry">
                        <mxPoint x="30" y="-4" as="offset"/>
                    </mxGeometry>
                </mxCell>
                <mxCell id="105" value="Non" style="edgeLabel;resizable=0;html=1;align=center;verticalAlign=middle;strokeWidth=1;fontSize=10;" connectable="0" vertex="1" parent="1">
                    <mxGeometry x="385.00003905792295" y="459.9968753661633" as="geometry">
                        <mxPoint x="30" y="-4" as="offset"/>
                    </mxGeometry>
                </mxCell>
                <mxCell id="106" value="Non" style="edgeLabel;resizable=0;html=1;align=center;verticalAlign=middle;strokeWidth=1;fontSize=10;" connectable="0" vertex="1" parent="1">
                    <mxGeometry x="545.000039057923" y="459.9968753661633" as="geometry">
                        <mxPoint x="30" y="-4" as="offset"/>
                    </mxGeometry>
                </mxCell>
                <mxCell id="110" value="oui" style="edgeLabel;resizable=0;html=1;align=center;verticalAlign=middle;strokeWidth=1;fontSize=10;" connectable="0" vertex="1" parent="1">
                    <mxGeometry x="490.000039057923" y="729.9968753661633" as="geometry">
                        <mxPoint x="30" y="-4" as="offset"/>
                    </mxGeometry>
                </mxCell>
                <mxCell id="113" value="" style="endArrow=none;html=1;fontSize=12;entryX=0;entryY=0.5;entryDx=0;entryDy=0;exitX=0.905;exitY=-0.038;exitDx=0;exitDy=0;exitPerimeter=0;" edge="1" parent="1" source="86" target="77">
                    <mxGeometry width="50" height="50" relative="1" as="geometry">
                        <mxPoint x="770" y="890" as="sourcePoint"/>
                        <mxPoint x="770" y="850" as="targetPoint"/>
                        <Array as="points">
                            <mxPoint x="650" y="820"/>
                        </Array>
                    </mxGeometry>
                </mxCell>
                <mxCell id="114" value="oui" style="edgeLabel;resizable=0;html=1;align=center;verticalAlign=middle;strokeWidth=1;fontSize=10;" connectable="0" vertex="1" parent="1">
                    <mxGeometry x="470.000039057923" y="819.9968753661633" as="geometry">
                        <mxPoint x="30" y="-4" as="offset"/>
                    </mxGeometry>
                </mxCell>
                <mxCell id="115" value="Non" style="edgeLabel;resizable=0;html=1;align=center;verticalAlign=middle;strokeWidth=1;fontSize=10;" connectable="0" vertex="1" parent="1">
                    <mxGeometry x="700.000039057923" y="859.9968753661633" as="geometry">
                        <mxPoint x="30" y="-4" as="offset"/>
                    </mxGeometry>
                </mxCell>
                <mxCell id="117" value="Non" style="edgeLabel;resizable=0;html=1;align=center;verticalAlign=middle;strokeWidth=1;fontSize=10;" connectable="0" vertex="1" parent="1">
                    <mxGeometry x="80.000039057923" y="529.9968753661633" as="geometry">
                        <mxPoint x="30" y="-4" as="offset"/>
                    </mxGeometry>
                </mxCell>
                <mxCell id="118" value="Text" style="text;html=1;align=center;verticalAlign=middle;resizable=0;points=[];autosize=1;strokeColor=none;fillColor=none;" vertex="1" parent="1">
                    <mxGeometry x="85" y="475" width="50" height="30" as="geometry"/>
                </mxCell>
            </root>
        </mxGraphModel>
    </diagram>
</mxfile>